<mxfile host="app.diagrams.net" modified="2023-09-01T06:04:47.089Z" agent="Mozilla/5.0 (Windows NT 10.0; Win64; x64) AppleWebKit/537.36 (KHTML, like Gecko) Chrome/116.0.0.0 Safari/537.36" etag="j9auoF0OWfgCLIiPw5Pt" version="21.7.1" type="github">
  <diagram name="Page-1" id="2YBvvXClWsGukQMizWep">
    <mxGraphModel dx="869" dy="1575" grid="0" gridSize="10" guides="1" tooltips="1" connect="1" arrows="1" fold="1" page="1" pageScale="1" pageWidth="850" pageHeight="1100" background="#b0b0b0" math="0" shadow="0">
      <root>
        <mxCell id="0" />
        <mxCell id="1" parent="0" />
        <mxCell id="0Mfy_nypwx77Hd2TMswc-115" value="" style="group" vertex="1" connectable="0" parent="1">
          <mxGeometry x="158" y="-946" width="573" height="872" as="geometry" />
        </mxCell>
        <mxCell id="0Mfy_nypwx77Hd2TMswc-113" value="" style="group" vertex="1" connectable="0" parent="0Mfy_nypwx77Hd2TMswc-115">
          <mxGeometry y="100" width="573" height="772" as="geometry" />
        </mxCell>
        <mxCell id="0Mfy_nypwx77Hd2TMswc-18" value="" style="group" vertex="1" connectable="0" parent="0Mfy_nypwx77Hd2TMswc-113">
          <mxGeometry x="68" y="70" width="80" height="80.0009523809523" as="geometry" />
        </mxCell>
        <mxCell id="0Mfy_nypwx77Hd2TMswc-15" value="" style="ellipse;aspect=fixed;fontColor=none;noLabel=1;" vertex="1" parent="0Mfy_nypwx77Hd2TMswc-18">
          <mxGeometry width="80" height="80" as="geometry" />
        </mxCell>
        <mxCell id="0Mfy_nypwx77Hd2TMswc-9" value="users" style="text;strokeColor=none;align=center;fillColor=none;html=1;verticalAlign=middle;whiteSpace=wrap;rounded=0;" vertex="1" parent="0Mfy_nypwx77Hd2TMswc-18">
          <mxGeometry x="11.503809523809537" y="50.0009523809523" width="60" height="30" as="geometry" />
        </mxCell>
        <mxCell id="0Mfy_nypwx77Hd2TMswc-17" value="" style="group" vertex="1" connectable="0" parent="0Mfy_nypwx77Hd2TMswc-18">
          <mxGeometry x="15" y="13" width="53" height="44" as="geometry" />
        </mxCell>
        <mxCell id="0Mfy_nypwx77Hd2TMswc-4" value="" style="sketch=0;outlineConnect=0;fontColor=#232F3E;gradientColor=none;fillColor=#232F3D;strokeColor=none;dashed=0;verticalLabelPosition=bottom;verticalAlign=top;align=center;html=1;fontSize=12;fontStyle=0;aspect=fixed;pointerEvents=1;shape=mxgraph.aws4.user;" vertex="1" parent="0Mfy_nypwx77Hd2TMswc-17">
          <mxGeometry x="17.9946949602122" y="11.891891891891895" width="14.614962788875832" height="14.614962788875832" as="geometry" />
        </mxCell>
        <mxCell id="0Mfy_nypwx77Hd2TMswc-5" value="" style="sketch=0;outlineConnect=0;fontColor=#232F3E;gradientColor=none;fillColor=#232F3D;strokeColor=none;dashed=0;verticalLabelPosition=bottom;verticalAlign=top;align=center;html=1;fontSize=12;fontStyle=0;aspect=fixed;pointerEvents=1;shape=mxgraph.aws4.user;" vertex="1" parent="0Mfy_nypwx77Hd2TMswc-17">
          <mxGeometry x="33.74005305039788" width="14.614962788875832" height="14.614962788875832" as="geometry" />
        </mxCell>
        <mxCell id="0Mfy_nypwx77Hd2TMswc-6" value="" style="sketch=0;outlineConnect=0;fontColor=#232F3E;gradientColor=none;fillColor=#232F3D;strokeColor=none;dashed=0;verticalLabelPosition=bottom;verticalAlign=top;align=center;html=1;fontSize=12;fontStyle=0;aspect=fixed;pointerEvents=1;shape=mxgraph.aws4.user;" vertex="1" parent="0Mfy_nypwx77Hd2TMswc-17">
          <mxGeometry width="14.614962788875832" height="14.614962788875832" as="geometry" />
        </mxCell>
        <mxCell id="0Mfy_nypwx77Hd2TMswc-7" value="" style="sketch=0;outlineConnect=0;fontColor=#232F3E;gradientColor=none;fillColor=#232F3D;strokeColor=none;dashed=0;verticalLabelPosition=bottom;verticalAlign=top;align=center;html=1;fontSize=12;fontStyle=0;aspect=fixed;pointerEvents=1;shape=mxgraph.aws4.user;" vertex="1" parent="0Mfy_nypwx77Hd2TMswc-17">
          <mxGeometry x="36.12997347480106" y="26.16216216216217" width="13.701527614571093" height="13.701527614571093" as="geometry" />
        </mxCell>
        <mxCell id="0Mfy_nypwx77Hd2TMswc-8" value="" style="sketch=0;outlineConnect=0;fontColor=#232F3E;gradientColor=none;fillColor=#232F3D;strokeColor=none;dashed=0;verticalLabelPosition=bottom;verticalAlign=top;align=center;html=1;fontSize=12;fontStyle=0;aspect=fixed;pointerEvents=1;shape=mxgraph.aws4.user;" vertex="1" parent="0Mfy_nypwx77Hd2TMswc-17">
          <mxGeometry y="24.37837837837838" width="14.614962788875832" height="14.614962788875832" as="geometry" />
        </mxCell>
        <mxCell id="0Mfy_nypwx77Hd2TMswc-24" value="" style="group" vertex="1" connectable="0" parent="0Mfy_nypwx77Hd2TMswc-113">
          <mxGeometry x="531" y="98" width="42" height="35" as="geometry" />
        </mxCell>
        <mxCell id="0Mfy_nypwx77Hd2TMswc-22" value="" style="html=1;whiteSpace=wrap;shape=isoCube2;backgroundOutline=1;isoAngle=15;" vertex="1" parent="0Mfy_nypwx77Hd2TMswc-24">
          <mxGeometry x="11" width="20" height="23" as="geometry" />
        </mxCell>
        <mxCell id="0Mfy_nypwx77Hd2TMswc-23" value="product" style="text;strokeColor=none;align=center;fillColor=none;html=1;verticalAlign=middle;whiteSpace=wrap;rounded=0;" vertex="1" parent="0Mfy_nypwx77Hd2TMswc-24">
          <mxGeometry y="23" width="42" height="12" as="geometry" />
        </mxCell>
        <mxCell id="0Mfy_nypwx77Hd2TMswc-29" value="" style="group" vertex="1" connectable="0" parent="0Mfy_nypwx77Hd2TMswc-113">
          <mxGeometry x="98.00000000000001" y="309" width="58.519999999999996" height="35.89999999999998" as="geometry" />
        </mxCell>
        <mxCell id="0Mfy_nypwx77Hd2TMswc-25" value="" style="sketch=0;outlineConnect=0;fontColor=#232F3E;gradientColor=none;fillColor=#232F3D;strokeColor=none;dashed=0;verticalLabelPosition=bottom;verticalAlign=top;align=center;html=1;fontSize=12;fontStyle=0;aspect=fixed;pointerEvents=1;shape=mxgraph.aws4.users;" vertex="1" parent="0Mfy_nypwx77Hd2TMswc-29">
          <mxGeometry x="18.760000000000005" width="21" height="21" as="geometry" />
        </mxCell>
        <mxCell id="0Mfy_nypwx77Hd2TMswc-26" value="Dev team" style="text;strokeColor=none;align=center;fillColor=none;html=1;verticalAlign=middle;whiteSpace=wrap;rounded=0;" vertex="1" parent="0Mfy_nypwx77Hd2TMswc-29">
          <mxGeometry y="21" width="58.52" height="14.9" as="geometry" />
        </mxCell>
        <mxCell id="0Mfy_nypwx77Hd2TMswc-33" value="" style="group" vertex="1" connectable="0" parent="0Mfy_nypwx77Hd2TMswc-113">
          <mxGeometry x="11.719999999999999" y="246" width="27.519999999999996" height="34" as="geometry" />
        </mxCell>
        <mxCell id="0Mfy_nypwx77Hd2TMswc-31" value="" style="sketch=0;outlineConnect=0;fontColor=#232F3E;gradientColor=none;fillColor=#D45B07;strokeColor=none;dashed=0;verticalLabelPosition=bottom;verticalAlign=top;align=center;html=1;fontSize=12;fontStyle=0;aspect=fixed;pointerEvents=1;shape=mxgraph.aws4.ecs_task;" vertex="1" parent="0Mfy_nypwx77Hd2TMswc-33">
          <mxGeometry x="5.280000000000001" width="16.96" height="22" as="geometry" />
        </mxCell>
        <mxCell id="0Mfy_nypwx77Hd2TMswc-32" value="task" style="text;strokeColor=none;align=center;fillColor=none;html=1;verticalAlign=middle;whiteSpace=wrap;rounded=0;" vertex="1" parent="0Mfy_nypwx77Hd2TMswc-33">
          <mxGeometry y="28" width="27.52" height="6" as="geometry" />
        </mxCell>
        <mxCell id="0Mfy_nypwx77Hd2TMswc-37" value="" style="group" vertex="1" connectable="0" parent="0Mfy_nypwx77Hd2TMswc-113">
          <mxGeometry x="264" y="350" width="86.62" height="29.33000000000004" as="geometry" />
        </mxCell>
        <mxCell id="0Mfy_nypwx77Hd2TMswc-34" value="" style="sketch=0;outlineConnect=0;fontColor=#232F3E;gradientColor=none;fillColor=#232F3D;strokeColor=none;dashed=0;verticalLabelPosition=bottom;verticalAlign=top;align=center;html=1;fontSize=12;fontStyle=0;aspect=fixed;pointerEvents=1;shape=mxgraph.aws4.git_repository;" vertex="1" parent="0Mfy_nypwx77Hd2TMswc-37">
          <mxGeometry x="27" width="14.85" height="19.31" as="geometry" />
        </mxCell>
        <mxCell id="0Mfy_nypwx77Hd2TMswc-35" value="feature branch" style="text;strokeColor=none;align=center;fillColor=none;html=1;verticalAlign=middle;whiteSpace=wrap;rounded=0;" vertex="1" parent="0Mfy_nypwx77Hd2TMswc-37">
          <mxGeometry y="23" width="86.62" height="6.33" as="geometry" />
        </mxCell>
        <mxCell id="0Mfy_nypwx77Hd2TMswc-47" value="" style="group" vertex="1" connectable="0" parent="0Mfy_nypwx77Hd2TMswc-113">
          <mxGeometry x="54" y="471" width="38" height="51.24000000000001" as="geometry" />
        </mxCell>
        <mxCell id="0Mfy_nypwx77Hd2TMswc-103" style="edgeStyle=orthogonalEdgeStyle;rounded=0;orthogonalLoop=1;jettySize=auto;html=1;exitX=1;exitY=0.5;exitDx=0;exitDy=0;exitPerimeter=0;" edge="1" parent="0Mfy_nypwx77Hd2TMswc-47" source="0Mfy_nypwx77Hd2TMswc-38">
          <mxGeometry relative="1" as="geometry">
            <mxPoint x="141.39999999999998" y="19" as="targetPoint" />
          </mxGeometry>
        </mxCell>
        <mxCell id="0Mfy_nypwx77Hd2TMswc-38" value="" style="verticalLabelPosition=bottom;html=1;verticalAlign=middle;align=center;strokeColor=none;fillColor=#00BEF2;shape=mxgraph.azure.git_repository;" vertex="1" parent="0Mfy_nypwx77Hd2TMswc-47">
          <mxGeometry width="38" height="38" as="geometry" />
        </mxCell>
        <mxCell id="0Mfy_nypwx77Hd2TMswc-42" value="dev" style="text;strokeColor=none;align=center;fillColor=none;html=1;verticalAlign=middle;whiteSpace=wrap;rounded=0;" vertex="1" parent="0Mfy_nypwx77Hd2TMswc-47">
          <mxGeometry y="41" width="36.9" height="10.24" as="geometry" />
        </mxCell>
        <mxCell id="0Mfy_nypwx77Hd2TMswc-48" value="" style="group" vertex="1" connectable="0" parent="0Mfy_nypwx77Hd2TMswc-113">
          <mxGeometry x="183.84999999999997" y="472" width="58.29000000000002" height="48.51999999999998" as="geometry" />
        </mxCell>
        <mxCell id="0Mfy_nypwx77Hd2TMswc-104" style="edgeStyle=orthogonalEdgeStyle;rounded=0;orthogonalLoop=1;jettySize=auto;html=1;exitX=1;exitY=0.5;exitDx=0;exitDy=0;exitPerimeter=0;" edge="1" parent="0Mfy_nypwx77Hd2TMswc-48" source="0Mfy_nypwx77Hd2TMswc-39">
          <mxGeometry relative="1" as="geometry">
            <mxPoint x="157.55" y="18" as="targetPoint" />
          </mxGeometry>
        </mxCell>
        <mxCell id="0Mfy_nypwx77Hd2TMswc-39" value="" style="verticalLabelPosition=bottom;html=1;verticalAlign=middle;align=center;strokeColor=none;fillColor=#00BEF2;shape=mxgraph.azure.git_repository;" vertex="1" parent="0Mfy_nypwx77Hd2TMswc-48">
          <mxGeometry x="11.150000000000034" width="36" height="36" as="geometry" />
        </mxCell>
        <mxCell id="0Mfy_nypwx77Hd2TMswc-108" style="edgeStyle=orthogonalEdgeStyle;rounded=0;orthogonalLoop=1;jettySize=auto;html=1;exitX=0.5;exitY=1;exitDx=0;exitDy=0;" edge="1" parent="0Mfy_nypwx77Hd2TMswc-48" source="0Mfy_nypwx77Hd2TMswc-43">
          <mxGeometry relative="1" as="geometry">
            <mxPoint x="29.150000000000034" y="70.79999999999995" as="targetPoint" />
          </mxGeometry>
        </mxCell>
        <mxCell id="0Mfy_nypwx77Hd2TMswc-43" value="test/stage" style="text;strokeColor=none;align=center;fillColor=none;html=1;verticalAlign=middle;whiteSpace=wrap;rounded=0;" vertex="1" parent="0Mfy_nypwx77Hd2TMswc-48">
          <mxGeometry y="36" width="58.29" height="12.52" as="geometry" />
        </mxCell>
        <mxCell id="0Mfy_nypwx77Hd2TMswc-49" value="" style="group" vertex="1" connectable="0" parent="0Mfy_nypwx77Hd2TMswc-113">
          <mxGeometry x="341" y="473" width="38.379999999999995" height="44.809999999999945" as="geometry" />
        </mxCell>
        <mxCell id="0Mfy_nypwx77Hd2TMswc-40" value="" style="verticalLabelPosition=bottom;html=1;verticalAlign=middle;align=center;strokeColor=none;fillColor=#00BEF2;shape=mxgraph.azure.git_repository;" vertex="1" parent="0Mfy_nypwx77Hd2TMswc-49">
          <mxGeometry width="34" height="34" as="geometry" />
        </mxCell>
        <mxCell id="0Mfy_nypwx77Hd2TMswc-109" style="edgeStyle=orthogonalEdgeStyle;rounded=0;orthogonalLoop=1;jettySize=auto;html=1;exitX=0.5;exitY=1;exitDx=0;exitDy=0;" edge="1" parent="0Mfy_nypwx77Hd2TMswc-49" source="0Mfy_nypwx77Hd2TMswc-44">
          <mxGeometry relative="1" as="geometry">
            <mxPoint x="20.799999999999955" y="71" as="targetPoint" />
          </mxGeometry>
        </mxCell>
        <mxCell id="0Mfy_nypwx77Hd2TMswc-44" value="main" style="text;strokeColor=none;align=center;fillColor=none;html=1;verticalAlign=middle;whiteSpace=wrap;rounded=0;" vertex="1" parent="0Mfy_nypwx77Hd2TMswc-49">
          <mxGeometry x="3" y="36" width="35.38" height="8.81" as="geometry" />
        </mxCell>
        <mxCell id="0Mfy_nypwx77Hd2TMswc-52" value="" style="group;verticalAlign=middle;align=center;" vertex="1" connectable="0" parent="0Mfy_nypwx77Hd2TMswc-113">
          <mxGeometry x="41.999999999999986" y="661" width="68" height="29" as="geometry" />
        </mxCell>
        <mxCell id="0Mfy_nypwx77Hd2TMswc-50" value="" style="rounded=0;whiteSpace=wrap;html=1;verticalAlign=middle;align=center;" vertex="1" parent="0Mfy_nypwx77Hd2TMswc-52">
          <mxGeometry width="68" height="29" as="geometry" />
        </mxCell>
        <mxCell id="0Mfy_nypwx77Hd2TMswc-51" value="aws test" style="text;strokeColor=none;align=center;fillColor=none;html=1;verticalAlign=middle;whiteSpace=wrap;rounded=0;" vertex="1" parent="0Mfy_nypwx77Hd2TMswc-52">
          <mxGeometry x="6.8799999999999955" y="6.220000000000027" width="54.24" height="16.57" as="geometry" />
        </mxCell>
        <mxCell id="0Mfy_nypwx77Hd2TMswc-67" value="" style="group" vertex="1" connectable="0" parent="0Mfy_nypwx77Hd2TMswc-113">
          <mxGeometry x="33" y="548" width="91.38" height="33" as="geometry" />
        </mxCell>
        <mxCell id="0Mfy_nypwx77Hd2TMswc-61" value="" style="sketch=0;outlineConnect=0;fontColor=#232F3E;gradientColor=none;fillColor=#232F3D;strokeColor=none;dashed=0;verticalLabelPosition=bottom;verticalAlign=top;align=center;html=1;fontSize=12;fontStyle=0;aspect=fixed;pointerEvents=1;shape=mxgraph.aws4.git_repository;" vertex="1" parent="0Mfy_nypwx77Hd2TMswc-67">
          <mxGeometry x="32.31" width="15.38" height="20" as="geometry" />
        </mxCell>
        <mxCell id="0Mfy_nypwx77Hd2TMswc-105" style="edgeStyle=orthogonalEdgeStyle;rounded=0;orthogonalLoop=1;jettySize=auto;html=1;exitX=0.5;exitY=1;exitDx=0;exitDy=0;" edge="1" parent="0Mfy_nypwx77Hd2TMswc-67" source="0Mfy_nypwx77Hd2TMswc-64">
          <mxGeometry relative="1" as="geometry">
            <mxPoint x="45.60000000000002" y="112.40000000000009" as="targetPoint" />
          </mxGeometry>
        </mxCell>
        <mxCell id="0Mfy_nypwx77Hd2TMswc-64" value="&lt;font style=&quot;font-size: 7px;&quot;&gt;git actions build test deploy&lt;/font&gt;" style="text;strokeColor=none;align=center;fillColor=none;html=1;verticalAlign=middle;whiteSpace=wrap;rounded=0;" vertex="1" parent="0Mfy_nypwx77Hd2TMswc-67">
          <mxGeometry y="15" width="91.38" height="18" as="geometry" />
        </mxCell>
        <mxCell id="0Mfy_nypwx77Hd2TMswc-68" value="" style="group" vertex="1" connectable="0" parent="0Mfy_nypwx77Hd2TMswc-113">
          <mxGeometry x="177.31" y="547" width="91.38" height="34" as="geometry" />
        </mxCell>
        <mxCell id="0Mfy_nypwx77Hd2TMswc-63" value="" style="sketch=0;outlineConnect=0;fontColor=#232F3E;gradientColor=none;fillColor=#232F3D;strokeColor=none;dashed=0;verticalLabelPosition=bottom;verticalAlign=top;align=center;html=1;fontSize=12;fontStyle=0;aspect=fixed;pointerEvents=1;shape=mxgraph.aws4.git_repository;" vertex="1" parent="0Mfy_nypwx77Hd2TMswc-68">
          <mxGeometry x="30.689999999999998" width="15.38" height="20" as="geometry" />
        </mxCell>
        <mxCell id="0Mfy_nypwx77Hd2TMswc-66" value="&lt;font style=&quot;font-size: 7px;&quot;&gt;git actions build test deploy&lt;/font&gt;" style="text;strokeColor=none;align=center;fillColor=none;html=1;verticalAlign=middle;whiteSpace=wrap;rounded=0;" vertex="1" parent="0Mfy_nypwx77Hd2TMswc-68">
          <mxGeometry y="16" width="91.38" height="18" as="geometry" />
        </mxCell>
        <mxCell id="0Mfy_nypwx77Hd2TMswc-69" value="" style="group" vertex="1" connectable="0" parent="0Mfy_nypwx77Hd2TMswc-113">
          <mxGeometry x="337" y="548" width="91.38" height="33" as="geometry" />
        </mxCell>
        <mxCell id="0Mfy_nypwx77Hd2TMswc-62" value="" style="sketch=0;outlineConnect=0;fontColor=#232F3E;gradientColor=none;fillColor=#232F3D;strokeColor=none;dashed=0;verticalLabelPosition=bottom;verticalAlign=top;align=center;html=1;fontSize=12;fontStyle=0;aspect=fixed;pointerEvents=1;shape=mxgraph.aws4.git_repository;" vertex="1" parent="0Mfy_nypwx77Hd2TMswc-69">
          <mxGeometry x="20" width="15.38" height="20" as="geometry" />
        </mxCell>
        <mxCell id="0Mfy_nypwx77Hd2TMswc-65" value="&lt;font style=&quot;font-size: 7px;&quot;&gt;git actions build test deploy&lt;/font&gt;" style="text;strokeColor=none;align=center;fillColor=none;html=1;verticalAlign=middle;whiteSpace=wrap;rounded=0;" vertex="1" parent="0Mfy_nypwx77Hd2TMswc-69">
          <mxGeometry y="15" width="91.38" height="18" as="geometry" />
        </mxCell>
        <mxCell id="0Mfy_nypwx77Hd2TMswc-86" value="" style="group" vertex="1" connectable="0" parent="0Mfy_nypwx77Hd2TMswc-113">
          <mxGeometry x="189" y="661" width="123.51999999999998" height="111" as="geometry" />
        </mxCell>
        <mxCell id="0Mfy_nypwx77Hd2TMswc-58" value="" style="group;verticalAlign=middle;align=center;" vertex="1" connectable="0" parent="0Mfy_nypwx77Hd2TMswc-86">
          <mxGeometry width="68" height="29" as="geometry" />
        </mxCell>
        <mxCell id="0Mfy_nypwx77Hd2TMswc-59" value="" style="rounded=0;whiteSpace=wrap;html=1;verticalAlign=middle;align=center;" vertex="1" parent="0Mfy_nypwx77Hd2TMswc-58">
          <mxGeometry width="68" height="29" as="geometry" />
        </mxCell>
        <mxCell id="0Mfy_nypwx77Hd2TMswc-60" value="aws test" style="text;strokeColor=none;align=center;fillColor=none;html=1;verticalAlign=middle;whiteSpace=wrap;rounded=0;" vertex="1" parent="0Mfy_nypwx77Hd2TMswc-58">
          <mxGeometry x="6.8799999999999955" y="6.220000000000027" width="54.24" height="16.57" as="geometry" />
        </mxCell>
        <mxCell id="0Mfy_nypwx77Hd2TMswc-70" value="" style="image;aspect=fixed;html=1;points=[];align=center;fontSize=12;image=img/lib/azure2/general/Load_Test.svg;" vertex="1" parent="0Mfy_nypwx77Hd2TMswc-86">
          <mxGeometry x="41" y="72" width="17.52" height="17" as="geometry" />
        </mxCell>
        <mxCell id="0Mfy_nypwx77Hd2TMswc-84" style="edgeStyle=orthogonalEdgeStyle;rounded=0;orthogonalLoop=1;jettySize=auto;html=1;entryX=1;entryY=0.5;entryDx=0;entryDy=0;exitX=0.568;exitY=0.052;exitDx=0;exitDy=0;exitPerimeter=0;" edge="1" parent="0Mfy_nypwx77Hd2TMswc-86" source="0Mfy_nypwx77Hd2TMswc-71" target="0Mfy_nypwx77Hd2TMswc-59">
          <mxGeometry relative="1" as="geometry">
            <mxPoint x="105.11111111111109" y="23.388888888888914" as="targetPoint" />
          </mxGeometry>
        </mxCell>
        <mxCell id="0Mfy_nypwx77Hd2TMswc-71" value="" style="image;aspect=fixed;html=1;points=[];align=center;fontSize=12;image=img/lib/azure2/general/Load_Test.svg;" vertex="1" parent="0Mfy_nypwx77Hd2TMswc-86">
          <mxGeometry x="106" y="55" width="17.52" height="17" as="geometry" />
        </mxCell>
        <mxCell id="0Mfy_nypwx77Hd2TMswc-81" value="" style="edgeStyle=orthogonalEdgeStyle;rounded=0;orthogonalLoop=1;jettySize=auto;html=1;" edge="1" parent="0Mfy_nypwx77Hd2TMswc-86" source="0Mfy_nypwx77Hd2TMswc-70" target="0Mfy_nypwx77Hd2TMswc-71">
          <mxGeometry relative="1" as="geometry">
            <Array as="points">
              <mxPoint x="50" y="98" />
              <mxPoint x="116" y="98" />
            </Array>
          </mxGeometry>
        </mxCell>
        <mxCell id="0Mfy_nypwx77Hd2TMswc-72" value="&lt;font style=&quot;font-size: 7px;&quot;&gt;more realistic data&lt;/font&gt;" style="text;strokeColor=none;align=center;fillColor=none;html=1;verticalAlign=middle;whiteSpace=wrap;rounded=0;" vertex="1" parent="0Mfy_nypwx77Hd2TMswc-86">
          <mxGeometry x="6.949999999999989" y="40" width="61.05" height="11.29" as="geometry" />
        </mxCell>
        <mxCell id="0Mfy_nypwx77Hd2TMswc-79" style="edgeStyle=orthogonalEdgeStyle;rounded=0;orthogonalLoop=1;jettySize=auto;html=1;exitX=0.5;exitY=1;exitDx=0;exitDy=0;entryX=0.446;entryY=0.039;entryDx=0;entryDy=0;entryPerimeter=0;" edge="1" parent="0Mfy_nypwx77Hd2TMswc-86" source="0Mfy_nypwx77Hd2TMswc-59" target="0Mfy_nypwx77Hd2TMswc-72">
          <mxGeometry relative="1" as="geometry" />
        </mxCell>
        <mxCell id="0Mfy_nypwx77Hd2TMswc-85" value="loadtest" style="text;strokeColor=none;align=center;fillColor=none;html=1;verticalAlign=middle;whiteSpace=wrap;rounded=0;" vertex="1" parent="0Mfy_nypwx77Hd2TMswc-86">
          <mxGeometry x="53.139999999999986" y="100" width="56.71" height="11" as="geometry" />
        </mxCell>
        <mxCell id="0Mfy_nypwx77Hd2TMswc-87" value="" style="group" vertex="1" connectable="0" parent="0Mfy_nypwx77Hd2TMswc-113">
          <mxGeometry x="448" y="661" width="68.12" height="29" as="geometry" />
        </mxCell>
        <mxCell id="0Mfy_nypwx77Hd2TMswc-56" value="" style="rounded=0;whiteSpace=wrap;html=1;verticalAlign=middle;align=center;" vertex="1" parent="0Mfy_nypwx77Hd2TMswc-87">
          <mxGeometry x="0.12000000000000455" width="68" height="29" as="geometry" />
        </mxCell>
        <mxCell id="0Mfy_nypwx77Hd2TMswc-57" value="aws deploy" style="text;strokeColor=none;align=center;fillColor=none;html=1;verticalAlign=middle;whiteSpace=wrap;rounded=0;container=0;" vertex="1" parent="0Mfy_nypwx77Hd2TMswc-87">
          <mxGeometry y="6.220000000000027" width="68.12" height="15.78" as="geometry" />
        </mxCell>
        <mxCell id="0Mfy_nypwx77Hd2TMswc-88" style="edgeStyle=orthogonalEdgeStyle;rounded=0;orthogonalLoop=1;jettySize=auto;html=1;exitX=1;exitY=0.5;exitDx=0;exitDy=0;entryX=1.156;entryY=0.636;entryDx=0;entryDy=0;entryPerimeter=0;" edge="1" parent="0Mfy_nypwx77Hd2TMswc-113" source="0Mfy_nypwx77Hd2TMswc-15" target="0Mfy_nypwx77Hd2TMswc-93">
          <mxGeometry relative="1" as="geometry">
            <mxPoint x="129" y="196" as="targetPoint" />
            <Array as="points">
              <mxPoint x="399" y="110" />
              <mxPoint x="399" y="196" />
              <mxPoint x="305" y="196" />
            </Array>
          </mxGeometry>
        </mxCell>
        <mxCell id="0Mfy_nypwx77Hd2TMswc-91" value="user requirements" style="text;strokeColor=none;align=center;fillColor=none;html=1;verticalAlign=middle;whiteSpace=wrap;rounded=0;" vertex="1" parent="0Mfy_nypwx77Hd2TMswc-113">
          <mxGeometry x="221" y="96" width="112.8" height="12.6" as="geometry" />
        </mxCell>
        <mxCell id="0Mfy_nypwx77Hd2TMswc-92" value="" style="group" vertex="1" connectable="0" parent="0Mfy_nypwx77Hd2TMswc-113">
          <mxGeometry x="253" y="183" width="77.75999999999999" height="36.43000000000001" as="geometry" />
        </mxCell>
        <mxCell id="0Mfy_nypwx77Hd2TMswc-93" value="" style="sketch=0;outlineConnect=0;fontColor=#232F3E;gradientColor=none;fillColor=#232F3D;strokeColor=none;dashed=0;verticalLabelPosition=bottom;verticalAlign=top;align=center;html=1;fontSize=12;fontStyle=0;aspect=fixed;pointerEvents=1;shape=mxgraph.aws4.user;" vertex="1" parent="0Mfy_nypwx77Hd2TMswc-92">
          <mxGeometry x="27.879999999999995" width="22" height="22" as="geometry" />
        </mxCell>
        <mxCell id="0Mfy_nypwx77Hd2TMswc-94" value="client / boss" style="text;strokeColor=none;align=center;fillColor=none;html=1;verticalAlign=middle;whiteSpace=wrap;rounded=0;" vertex="1" parent="0Mfy_nypwx77Hd2TMswc-92">
          <mxGeometry y="28" width="77.76" height="8.43" as="geometry" />
        </mxCell>
        <mxCell id="0Mfy_nypwx77Hd2TMswc-96" value="" style="group" vertex="1" connectable="0" parent="0Mfy_nypwx77Hd2TMswc-113">
          <mxGeometry x="86.06" y="183" width="102.94" height="36.42999999999995" as="geometry" />
        </mxCell>
        <mxCell id="0Mfy_nypwx77Hd2TMswc-19" value="" style="sketch=0;outlineConnect=0;fontColor=#232F3E;gradientColor=none;fillColor=#232F3D;strokeColor=none;dashed=0;verticalLabelPosition=bottom;verticalAlign=top;align=center;html=1;fontSize=12;fontStyle=0;aspect=fixed;pointerEvents=1;shape=mxgraph.aws4.user;" vertex="1" parent="0Mfy_nypwx77Hd2TMswc-96">
          <mxGeometry x="32" width="22" height="22" as="geometry" />
        </mxCell>
        <mxCell id="0Mfy_nypwx77Hd2TMswc-20" value="product manager&amp;nbsp;" style="text;strokeColor=none;align=center;fillColor=none;html=1;verticalAlign=middle;whiteSpace=wrap;rounded=0;" vertex="1" parent="0Mfy_nypwx77Hd2TMswc-96">
          <mxGeometry y="24" width="102.94" height="12.43" as="geometry" />
        </mxCell>
        <mxCell id="0Mfy_nypwx77Hd2TMswc-97" value="" style="edgeStyle=segmentEdgeStyle;endArrow=classic;html=1;curved=0;rounded=0;endSize=8;startSize=8;sourcePerimeterSpacing=0;targetPerimeterSpacing=0;" edge="1" parent="0Mfy_nypwx77Hd2TMswc-113" source="0Mfy_nypwx77Hd2TMswc-93" target="0Mfy_nypwx77Hd2TMswc-19">
          <mxGeometry width="100" relative="1" as="geometry">
            <mxPoint x="225" y="177" as="sourcePoint" />
            <mxPoint x="325" y="217" as="targetPoint" />
            <Array as="points">
              <mxPoint x="245" y="194" />
              <mxPoint x="245" y="194" />
            </Array>
          </mxGeometry>
        </mxCell>
        <mxCell id="0Mfy_nypwx77Hd2TMswc-98" value="" style="edgeStyle=segmentEdgeStyle;endArrow=classic;html=1;curved=0;rounded=0;endSize=8;startSize=8;sourcePerimeterSpacing=0;targetPerimeterSpacing=0;entryX=0.412;entryY=-0.045;entryDx=0;entryDy=0;entryPerimeter=0;" edge="1" parent="0Mfy_nypwx77Hd2TMswc-113" source="0Mfy_nypwx77Hd2TMswc-19" target="0Mfy_nypwx77Hd2TMswc-31">
          <mxGeometry width="100" relative="1" as="geometry">
            <mxPoint x="66" y="174" as="sourcePoint" />
            <mxPoint x="26" y="229" as="targetPoint" />
            <Array as="points">
              <mxPoint x="24" y="194" />
            </Array>
          </mxGeometry>
        </mxCell>
        <mxCell id="0Mfy_nypwx77Hd2TMswc-99" style="edgeStyle=orthogonalEdgeStyle;rounded=0;orthogonalLoop=1;jettySize=auto;html=1;entryX=0;entryY=0.5;entryDx=0;entryDy=0;" edge="1" parent="0Mfy_nypwx77Hd2TMswc-113" target="0Mfy_nypwx77Hd2TMswc-26">
          <mxGeometry relative="1" as="geometry">
            <mxPoint x="26" y="286" as="sourcePoint" />
            <Array as="points">
              <mxPoint x="26" y="338" />
            </Array>
          </mxGeometry>
        </mxCell>
        <mxCell id="0Mfy_nypwx77Hd2TMswc-100" style="edgeStyle=orthogonalEdgeStyle;rounded=0;orthogonalLoop=1;jettySize=auto;html=1;exitX=1;exitY=0.5;exitDx=0;exitDy=0;" edge="1" parent="0Mfy_nypwx77Hd2TMswc-113" source="0Mfy_nypwx77Hd2TMswc-26" target="0Mfy_nypwx77Hd2TMswc-34">
          <mxGeometry relative="1" as="geometry" />
        </mxCell>
        <mxCell id="0Mfy_nypwx77Hd2TMswc-101" style="edgeStyle=orthogonalEdgeStyle;rounded=0;orthogonalLoop=1;jettySize=auto;html=1;exitX=0.5;exitY=1;exitDx=0;exitDy=0;entryX=0.5;entryY=0;entryDx=0;entryDy=0;entryPerimeter=0;" edge="1" parent="0Mfy_nypwx77Hd2TMswc-113" source="0Mfy_nypwx77Hd2TMswc-35" target="0Mfy_nypwx77Hd2TMswc-38">
          <mxGeometry relative="1" as="geometry">
            <mxPoint x="69" y="452" as="targetPoint" />
            <Array as="points">
              <mxPoint x="307" y="408" />
              <mxPoint y="408" />
              <mxPoint y="452" />
              <mxPoint x="73" y="452" />
            </Array>
          </mxGeometry>
        </mxCell>
        <mxCell id="0Mfy_nypwx77Hd2TMswc-102" style="edgeStyle=orthogonalEdgeStyle;rounded=0;orthogonalLoop=1;jettySize=auto;html=1;exitX=0;exitY=0.5;exitDx=0;exitDy=0;exitPerimeter=0;entryX=0;entryY=0.75;entryDx=0;entryDy=0;" edge="1" parent="0Mfy_nypwx77Hd2TMswc-113" source="0Mfy_nypwx77Hd2TMswc-38" target="0Mfy_nypwx77Hd2TMswc-64">
          <mxGeometry relative="1" as="geometry">
            <Array as="points">
              <mxPoint x="1" y="490" />
              <mxPoint x="1" y="577" />
            </Array>
          </mxGeometry>
        </mxCell>
        <mxCell id="0Mfy_nypwx77Hd2TMswc-107" style="edgeStyle=orthogonalEdgeStyle;rounded=0;orthogonalLoop=1;jettySize=auto;html=1;exitX=0.5;exitY=1;exitDx=0;exitDy=0;entryX=0.5;entryY=0;entryDx=0;entryDy=0;" edge="1" parent="0Mfy_nypwx77Hd2TMswc-113" source="0Mfy_nypwx77Hd2TMswc-66" target="0Mfy_nypwx77Hd2TMswc-59">
          <mxGeometry relative="1" as="geometry" />
        </mxCell>
        <mxCell id="0Mfy_nypwx77Hd2TMswc-110" style="edgeStyle=orthogonalEdgeStyle;rounded=0;orthogonalLoop=1;jettySize=auto;html=1;exitX=0.5;exitY=1;exitDx=0;exitDy=0;entryX=0;entryY=0.75;entryDx=0;entryDy=0;" edge="1" parent="0Mfy_nypwx77Hd2TMswc-113" source="0Mfy_nypwx77Hd2TMswc-65" target="0Mfy_nypwx77Hd2TMswc-57">
          <mxGeometry relative="1" as="geometry" />
        </mxCell>
        <mxCell id="0Mfy_nypwx77Hd2TMswc-111" style="edgeStyle=orthogonalEdgeStyle;rounded=0;orthogonalLoop=1;jettySize=auto;html=1;exitX=1;exitY=0.25;exitDx=0;exitDy=0;entryX=0.5;entryY=1;entryDx=0;entryDy=0;" edge="1" parent="0Mfy_nypwx77Hd2TMswc-113" source="0Mfy_nypwx77Hd2TMswc-57" target="0Mfy_nypwx77Hd2TMswc-23">
          <mxGeometry relative="1" as="geometry" />
        </mxCell>
        <mxCell id="0Mfy_nypwx77Hd2TMswc-112" style="edgeStyle=orthogonalEdgeStyle;rounded=0;orthogonalLoop=1;jettySize=auto;html=1;exitX=0.5;exitY=0;exitDx=0;exitDy=0;exitPerimeter=0;entryX=0.5;entryY=0;entryDx=0;entryDy=0;" edge="1" parent="0Mfy_nypwx77Hd2TMswc-113" source="0Mfy_nypwx77Hd2TMswc-22" target="0Mfy_nypwx77Hd2TMswc-15">
          <mxGeometry relative="1" as="geometry">
            <Array as="points">
              <mxPoint x="552" />
              <mxPoint x="108" />
            </Array>
          </mxGeometry>
        </mxCell>
        <mxCell id="0Mfy_nypwx77Hd2TMswc-114" value="Development flowchart" style="text;strokeColor=none;align=center;fillColor=none;html=1;verticalAlign=middle;whiteSpace=wrap;rounded=0;fontStyle=1;fontSize=24;" vertex="1" parent="0Mfy_nypwx77Hd2TMswc-115">
          <mxGeometry x="114" width="324" height="33" as="geometry" />
        </mxCell>
        <mxCell id="0Mfy_nypwx77Hd2TMswc-148" value="" style="group" vertex="1" connectable="0" parent="1">
          <mxGeometry x="172.5" y="2237" width="60" height="42.0033333333335" as="geometry" />
        </mxCell>
        <mxCell id="0Mfy_nypwx77Hd2TMswc-141" value="" style="verticalLabelPosition=bottom;verticalAlign=top;html=1;shadow=0;dashed=0;strokeWidth=1;shape=mxgraph.ios.iAddIcon;fillColor=#7AdF78;fillColor2=#1A9917;strokeColor=#ffffff;sketch=0;" vertex="1" parent="0Mfy_nypwx77Hd2TMswc-148">
          <mxGeometry x="22.5" width="15" height="15" as="geometry" />
        </mxCell>
        <mxCell id="0Mfy_nypwx77Hd2TMswc-142" value="add items" style="text;strokeColor=none;align=center;fillColor=none;html=1;verticalAlign=middle;whiteSpace=wrap;rounded=0;" vertex="1" parent="0Mfy_nypwx77Hd2TMswc-148">
          <mxGeometry y="12.0033333333335" width="60" height="30" as="geometry" />
        </mxCell>
        <mxCell id="0Mfy_nypwx77Hd2TMswc-152" value="" style="group" vertex="1" connectable="0" parent="1">
          <mxGeometry x="350" y="2235" width="83" height="37" as="geometry" />
        </mxCell>
        <mxCell id="0Mfy_nypwx77Hd2TMswc-137" value="" style="verticalLabelPosition=bottom;verticalAlign=top;html=1;shadow=0;dashed=0;strokeWidth=1;shape=mxgraph.ios.iAddIcon;fillColor=#7AdF78;fillColor2=#1A9917;strokeColor=#ffffff;sketch=0;" vertex="1" parent="0Mfy_nypwx77Hd2TMswc-152">
          <mxGeometry x="31" width="15" height="15" as="geometry" />
        </mxCell>
        <mxCell id="0Mfy_nypwx77Hd2TMswc-143" value="add player" style="text;strokeColor=none;align=center;fillColor=none;html=1;verticalAlign=middle;whiteSpace=wrap;rounded=0;" vertex="1" parent="0Mfy_nypwx77Hd2TMswc-152">
          <mxGeometry y="18" width="83" height="19" as="geometry" />
        </mxCell>
        <mxCell id="0Mfy_nypwx77Hd2TMswc-166" value="player profile comp." style="text;strokeColor=none;align=center;fillColor=none;html=1;verticalAlign=middle;whiteSpace=wrap;rounded=0;" vertex="1" parent="1">
          <mxGeometry x="60.14999999999998" y="2544" width="124.7" height="30" as="geometry" />
        </mxCell>
        <mxCell id="0Mfy_nypwx77Hd2TMswc-175" style="edgeStyle=orthogonalEdgeStyle;rounded=0;orthogonalLoop=1;jettySize=auto;html=1;exitX=1;exitY=0.75;exitDx=0;exitDy=0;" edge="1" parent="1" source="0Mfy_nypwx77Hd2TMswc-167">
          <mxGeometry relative="1" as="geometry">
            <mxPoint x="372.4242424242425" y="2734.3636363636365" as="targetPoint" />
          </mxGeometry>
        </mxCell>
        <mxCell id="0Mfy_nypwx77Hd2TMswc-167" value="overview&amp;nbsp;" style="text;strokeColor=none;align=left;fillColor=none;html=1;verticalAlign=middle;whiteSpace=wrap;rounded=0;" vertex="1" parent="1">
          <mxGeometry x="24.17" y="2725" width="50.83" height="13.18" as="geometry" />
        </mxCell>
        <mxCell id="0Mfy_nypwx77Hd2TMswc-194" style="edgeStyle=orthogonalEdgeStyle;rounded=0;orthogonalLoop=1;jettySize=auto;html=1;exitX=1;exitY=0.5;exitDx=0;exitDy=0;" edge="1" parent="1" source="0Mfy_nypwx77Hd2TMswc-168">
          <mxGeometry relative="1" as="geometry">
            <mxPoint x="290.83018867924534" y="2801.698113207547" as="targetPoint" />
          </mxGeometry>
        </mxCell>
        <mxCell id="0Mfy_nypwx77Hd2TMswc-168" value="training schedules" style="text;strokeColor=none;align=left;fillColor=none;html=1;verticalAlign=middle;whiteSpace=wrap;rounded=0;" vertex="1" parent="1">
          <mxGeometry x="24" y="2797" width="102" height="9.09" as="geometry" />
        </mxCell>
        <mxCell id="0Mfy_nypwx77Hd2TMswc-174" value="" style="group" vertex="1" connectable="0" parent="1">
          <mxGeometry x="567" y="2620" width="199.93999999999994" height="16.059999999999945" as="geometry" />
        </mxCell>
        <mxCell id="0Mfy_nypwx77Hd2TMswc-171" value="change password" style="text;strokeColor=none;align=center;fillColor=none;html=1;verticalAlign=middle;whiteSpace=wrap;rounded=0;" vertex="1" parent="0Mfy_nypwx77Hd2TMswc-174">
          <mxGeometry y="5.2999999999999545" width="104.12" height="10.76" as="geometry" />
        </mxCell>
        <mxCell id="0Mfy_nypwx77Hd2TMswc-173" value="edit profile" style="text;strokeColor=none;align=center;fillColor=none;html=1;verticalAlign=middle;whiteSpace=wrap;rounded=0;" vertex="1" parent="0Mfy_nypwx77Hd2TMswc-174">
          <mxGeometry x="131.12" width="68.82" height="16.06" as="geometry" />
        </mxCell>
        <mxCell id="0Mfy_nypwx77Hd2TMswc-181" value="" style="group" vertex="1" connectable="0" parent="1">
          <mxGeometry x="374" y="2706" width="132" height="62.610000000000014" as="geometry" />
        </mxCell>
        <mxCell id="0Mfy_nypwx77Hd2TMswc-180" value="" style="rounded=0;whiteSpace=wrap;html=1;" vertex="1" parent="0Mfy_nypwx77Hd2TMswc-181">
          <mxGeometry y="1" width="132" height="61.61" as="geometry" />
        </mxCell>
        <mxCell id="0Mfy_nypwx77Hd2TMswc-176" value="guardian profile comp" style="text;strokeColor=none;align=center;fillColor=none;html=1;verticalAlign=middle;whiteSpace=wrap;rounded=0;" vertex="1" parent="0Mfy_nypwx77Hd2TMswc-181">
          <mxGeometry x="5.684341886080802e-14" width="127.99999999999994" height="21.359999999999996" as="geometry" />
        </mxCell>
        <mxCell id="0Mfy_nypwx77Hd2TMswc-177" value="assign team" style="text;strokeColor=none;align=left;fillColor=none;html=1;verticalAlign=middle;whiteSpace=wrap;rounded=0;" vertex="1" parent="0Mfy_nypwx77Hd2TMswc-181">
          <mxGeometry x="4" y="25" width="79.82451612903222" height="12.939999999999996" as="geometry" />
        </mxCell>
        <mxCell id="0Mfy_nypwx77Hd2TMswc-178" value="team profile comp" style="text;strokeColor=none;align=left;fillColor=none;html=1;verticalAlign=middle;whiteSpace=wrap;rounded=0;" vertex="1" parent="0Mfy_nypwx77Hd2TMswc-181">
          <mxGeometry x="3.0322580645162134" y="42" width="103.00903225806448" height="18.609999999999996" as="geometry" />
        </mxCell>
        <mxCell id="0Mfy_nypwx77Hd2TMswc-182" value="" style="group" vertex="1" connectable="0" parent="1">
          <mxGeometry x="725" y="2237" width="57" height="35" as="geometry" />
        </mxCell>
        <mxCell id="0Mfy_nypwx77Hd2TMswc-183" value="" style="verticalLabelPosition=bottom;verticalAlign=top;html=1;shadow=0;dashed=0;strokeWidth=1;shape=mxgraph.ios.iAddIcon;fillColor=#7AdF78;fillColor2=#1A9917;strokeColor=#ffffff;sketch=0;" vertex="1" parent="0Mfy_nypwx77Hd2TMswc-182">
          <mxGeometry x="21" width="15" height="15" as="geometry" />
        </mxCell>
        <mxCell id="0Mfy_nypwx77Hd2TMswc-184" value="add team&amp;nbsp;" style="text;strokeColor=none;align=center;fillColor=none;html=1;verticalAlign=middle;whiteSpace=wrap;rounded=0;" vertex="1" parent="0Mfy_nypwx77Hd2TMswc-182">
          <mxGeometry y="19" width="57" height="16" as="geometry" />
        </mxCell>
        <mxCell id="0Mfy_nypwx77Hd2TMswc-185" value="" style="group" vertex="1" connectable="0" parent="1">
          <mxGeometry x="507" y="2237" width="88" height="38" as="geometry" />
        </mxCell>
        <mxCell id="0Mfy_nypwx77Hd2TMswc-186" value="" style="verticalLabelPosition=bottom;verticalAlign=top;html=1;shadow=0;dashed=0;strokeWidth=1;shape=mxgraph.ios.iAddIcon;fillColor=#7AdF78;fillColor2=#1A9917;strokeColor=#ffffff;sketch=0;" vertex="1" parent="0Mfy_nypwx77Hd2TMswc-185">
          <mxGeometry x="36" width="15" height="15" as="geometry" />
        </mxCell>
        <mxCell id="0Mfy_nypwx77Hd2TMswc-187" value="add guardian" style="text;strokeColor=none;align=center;fillColor=none;html=1;verticalAlign=middle;whiteSpace=wrap;rounded=0;" vertex="1" parent="0Mfy_nypwx77Hd2TMswc-185">
          <mxGeometry y="15" width="88" height="23" as="geometry" />
        </mxCell>
        <mxCell id="0Mfy_nypwx77Hd2TMswc-189" value="" style="group;fontSize=15;" vertex="1" connectable="0" parent="1">
          <mxGeometry x="81" y="2372" width="83" height="37" as="geometry" />
        </mxCell>
        <mxCell id="0Mfy_nypwx77Hd2TMswc-190" value="" style="verticalLabelPosition=bottom;verticalAlign=top;html=1;shadow=0;dashed=0;strokeWidth=1;shape=mxgraph.ios.iAddIcon;fillColor=#7AdF78;fillColor2=#1A9917;strokeColor=#ffffff;sketch=0;" vertex="1" parent="0Mfy_nypwx77Hd2TMswc-189">
          <mxGeometry x="31" width="15" height="15" as="geometry" />
        </mxCell>
        <mxCell id="0Mfy_nypwx77Hd2TMswc-191" value="add player" style="text;strokeColor=none;align=center;fillColor=none;html=1;verticalAlign=middle;whiteSpace=wrap;rounded=0;" vertex="1" parent="0Mfy_nypwx77Hd2TMswc-189">
          <mxGeometry y="18" width="83" height="19" as="geometry" />
        </mxCell>
        <mxCell id="0Mfy_nypwx77Hd2TMswc-193" value="" style="group" vertex="1" connectable="0" parent="1">
          <mxGeometry x="346" y="2334" width="165" height="129" as="geometry" />
        </mxCell>
        <mxCell id="0Mfy_nypwx77Hd2TMswc-158" value="" style="rounded=0;whiteSpace=wrap;html=1;" vertex="1" parent="0Mfy_nypwx77Hd2TMswc-193">
          <mxGeometry width="165" height="129" as="geometry" />
        </mxCell>
        <mxCell id="0Mfy_nypwx77Hd2TMswc-154" value="add form" style="text;strokeColor=none;align=center;fillColor=none;html=1;verticalAlign=middle;whiteSpace=wrap;rounded=0;" vertex="1" parent="0Mfy_nypwx77Hd2TMswc-193">
          <mxGeometry x="42" y="6" width="62" height="12" as="geometry" />
        </mxCell>
        <mxCell id="0Mfy_nypwx77Hd2TMswc-155" value="modal" style="text;strokeColor=none;align=center;fillColor=none;html=1;verticalAlign=middle;whiteSpace=wrap;rounded=0;" vertex="1" parent="0Mfy_nypwx77Hd2TMswc-193">
          <mxGeometry x="55.5" y="45" width="35" height="6" as="geometry" />
        </mxCell>
        <mxCell id="0Mfy_nypwx77Hd2TMswc-159" style="edgeStyle=orthogonalEdgeStyle;rounded=0;orthogonalLoop=1;jettySize=auto;html=1;exitX=0.5;exitY=1;exitDx=0;exitDy=0;entryX=0.514;entryY=-0.185;entryDx=0;entryDy=0;entryPerimeter=0;" edge="1" parent="0Mfy_nypwx77Hd2TMswc-193" source="0Mfy_nypwx77Hd2TMswc-154" target="0Mfy_nypwx77Hd2TMswc-155">
          <mxGeometry relative="1" as="geometry" />
        </mxCell>
        <mxCell id="0Mfy_nypwx77Hd2TMswc-156" value="select modal" style="text;strokeColor=none;align=center;fillColor=none;html=1;verticalAlign=middle;whiteSpace=wrap;rounded=0;" vertex="1" parent="0Mfy_nypwx77Hd2TMswc-193">
          <mxGeometry x="2" y="95" width="74" height="13" as="geometry" />
        </mxCell>
        <mxCell id="0Mfy_nypwx77Hd2TMswc-162" style="edgeStyle=orthogonalEdgeStyle;rounded=0;orthogonalLoop=1;jettySize=auto;html=1;exitX=0;exitY=0.5;exitDx=0;exitDy=0;entryX=0.28;entryY=0.034;entryDx=0;entryDy=0;entryPerimeter=0;" edge="1" parent="0Mfy_nypwx77Hd2TMswc-193" source="0Mfy_nypwx77Hd2TMswc-155" target="0Mfy_nypwx77Hd2TMswc-156">
          <mxGeometry relative="1" as="geometry" />
        </mxCell>
        <mxCell id="0Mfy_nypwx77Hd2TMswc-157" value="modal form" style="text;strokeColor=none;align=center;fillColor=none;html=1;verticalAlign=middle;whiteSpace=wrap;rounded=0;" vertex="1" parent="0Mfy_nypwx77Hd2TMswc-193">
          <mxGeometry x="92" y="96" width="69" height="11" as="geometry" />
        </mxCell>
        <mxCell id="0Mfy_nypwx77Hd2TMswc-161" style="edgeStyle=orthogonalEdgeStyle;rounded=0;orthogonalLoop=1;jettySize=auto;html=1;exitX=1;exitY=0.5;exitDx=0;exitDy=0;entryX=0.561;entryY=-0.084;entryDx=0;entryDy=0;entryPerimeter=0;" edge="1" parent="0Mfy_nypwx77Hd2TMswc-193" source="0Mfy_nypwx77Hd2TMswc-155" target="0Mfy_nypwx77Hd2TMswc-157">
          <mxGeometry relative="1" as="geometry" />
        </mxCell>
        <mxCell id="0Mfy_nypwx77Hd2TMswc-197" value="" style="group" vertex="1" connectable="0" parent="1">
          <mxGeometry x="294.0043243243244" y="2781.55" width="63.99567567567561" height="40" as="geometry" />
        </mxCell>
        <mxCell id="0Mfy_nypwx77Hd2TMswc-196" value="" style="rounded=0;whiteSpace=wrap;html=1;" vertex="1" parent="0Mfy_nypwx77Hd2TMswc-197">
          <mxGeometry x="1.4956756756756135" width="62.5" height="40" as="geometry" />
        </mxCell>
        <mxCell id="0Mfy_nypwx77Hd2TMswc-195" value="action view list" style="text;strokeColor=none;align=center;fillColor=none;html=1;verticalAlign=middle;whiteSpace=wrap;rounded=0;" vertex="1" parent="0Mfy_nypwx77Hd2TMswc-197">
          <mxGeometry y="4.998378378378334" width="60" height="30" as="geometry" />
        </mxCell>
        <mxCell id="0Mfy_nypwx77Hd2TMswc-203" value="" style="group" vertex="1" connectable="0" parent="1">
          <mxGeometry x="20" y="2857" width="175.33" height="28.170000000000073" as="geometry" />
        </mxCell>
        <mxCell id="0Mfy_nypwx77Hd2TMswc-199" value="" style="rounded=0;whiteSpace=wrap;html=1;" vertex="1" parent="0Mfy_nypwx77Hd2TMswc-203">
          <mxGeometry width="153" height="26" as="geometry" />
        </mxCell>
        <mxCell id="0Mfy_nypwx77Hd2TMswc-169" value="recent activity component" style="text;strokeColor=none;align=left;fillColor=none;html=1;verticalAlign=middle;whiteSpace=wrap;rounded=0;" vertex="1" parent="0Mfy_nypwx77Hd2TMswc-203">
          <mxGeometry x="8" y="0.7200000000000273" width="167.33" height="27.45" as="geometry" />
        </mxCell>
        <mxCell id="0Mfy_nypwx77Hd2TMswc-204" value="" style="group" vertex="1" connectable="0" parent="1">
          <mxGeometry x="200.33" y="2857.7200000000003" width="153.00000000000003" height="26" as="geometry" />
        </mxCell>
        <mxCell id="0Mfy_nypwx77Hd2TMswc-202" value="" style="rounded=0;whiteSpace=wrap;html=1;" vertex="1" parent="0Mfy_nypwx77Hd2TMswc-204">
          <mxGeometry width="153" height="26" as="geometry" />
        </mxCell>
        <mxCell id="0Mfy_nypwx77Hd2TMswc-170" value="invoices component" style="text;strokeColor=none;align=left;fillColor=none;html=1;verticalAlign=middle;whiteSpace=wrap;rounded=0;" vertex="1" parent="0Mfy_nypwx77Hd2TMswc-204">
          <mxGeometry x="20.669999999999987" y="2.439999999999941" width="132.33" height="21.12" as="geometry" />
        </mxCell>
        <mxCell id="0Mfy_nypwx77Hd2TMswc-212" value="&lt;b style=&quot;font-size: 19px;&quot;&gt;Common lib component&lt;/b&gt;" style="text;strokeColor=none;align=center;fillColor=none;html=1;verticalAlign=middle;whiteSpace=wrap;rounded=0;fontSize=19;" vertex="1" parent="1">
          <mxGeometry x="17" y="47" width="241" height="20.67" as="geometry" />
        </mxCell>
        <mxCell id="0Mfy_nypwx77Hd2TMswc-213" value="&amp;gt; success modal&lt;br&gt;&amp;gt; success modal msg&amp;nbsp;&lt;br&gt;&amp;gt; select modal&lt;br&gt;&amp;gt; change password&lt;br&gt;&amp;gt; invoice page&lt;br&gt;&amp;gt; view action (list)" style="text;strokeColor=none;align=left;fillColor=none;html=1;verticalAlign=top;whiteSpace=wrap;rounded=0;" vertex="1" parent="1">
          <mxGeometry x="30" y="65" width="164" height="241" as="geometry" />
        </mxCell>
        <mxCell id="0Mfy_nypwx77Hd2TMswc-214" value="&lt;b style=&quot;font-size: 19px;&quot;&gt;Common Component&lt;/b&gt;" style="text;strokeColor=none;align=center;fillColor=none;html=1;verticalAlign=middle;whiteSpace=wrap;rounded=0;fontSize=19;" vertex="1" parent="1">
          <mxGeometry x="17" y="298" width="218" height="20.67" as="geometry" />
        </mxCell>
        <mxCell id="0Mfy_nypwx77Hd2TMswc-215" value="&amp;gt; add form&lt;br&gt;&amp;gt; overview&lt;br&gt;&amp;gt; training schedule&amp;nbsp;&lt;br&gt;&amp;gt; recent activity&lt;br&gt;&amp;gt; invoices lists&lt;br&gt;&amp;gt; modal form" style="text;strokeColor=none;align=left;fillColor=none;html=1;verticalAlign=top;whiteSpace=wrap;rounded=0;" vertex="1" parent="1">
          <mxGeometry x="30" y="324" width="238.85" height="235.38" as="geometry" />
        </mxCell>
        <mxCell id="0Mfy_nypwx77Hd2TMswc-216" value="&lt;b style=&quot;font-size: 19px;&quot;&gt;Common main Component&lt;/b&gt;" style="text;strokeColor=none;align=center;fillColor=none;html=1;verticalAlign=middle;whiteSpace=wrap;rounded=0;fontSize=19;" vertex="1" parent="1">
          <mxGeometry x="443" y="44" width="308" height="12" as="geometry" />
        </mxCell>
        <mxCell id="0Mfy_nypwx77Hd2TMswc-217" value="&amp;gt; player profile component" style="text;strokeColor=none;align=left;fillColor=none;html=1;verticalAlign=top;whiteSpace=wrap;rounded=0;" vertex="1" parent="1">
          <mxGeometry x="477" y="61" width="332.3" height="522.44" as="geometry" />
        </mxCell>
        <mxCell id="0Mfy_nypwx77Hd2TMswc-218" value="" style="group" vertex="1" connectable="0" parent="1">
          <mxGeometry x="268.85" y="1142" width="186" height="110" as="geometry" />
        </mxCell>
        <mxCell id="0Mfy_nypwx77Hd2TMswc-117" value="&lt;b style=&quot;font-size: 19px;&quot;&gt;admin all features&lt;/b&gt;" style="text;strokeColor=none;align=center;fillColor=none;html=1;verticalAlign=middle;whiteSpace=wrap;rounded=0;fontSize=19;" vertex="1" parent="0Mfy_nypwx77Hd2TMswc-218">
          <mxGeometry y="78" width="186" height="32" as="geometry" />
        </mxCell>
        <mxCell id="0Mfy_nypwx77Hd2TMswc-123" value="" style="sketch=0;outlineConnect=0;fontColor=#232F3E;gradientColor=none;fillColor=#232F3D;strokeColor=none;dashed=0;verticalLabelPosition=bottom;verticalAlign=top;align=center;html=1;fontSize=12;fontStyle=0;aspect=fixed;pointerEvents=1;shape=mxgraph.aws4.git_repository;" vertex="1" parent="0Mfy_nypwx77Hd2TMswc-218">
          <mxGeometry x="52" width="63" height="81.9" as="geometry" />
        </mxCell>
        <mxCell id="0Mfy_nypwx77Hd2TMswc-231" value="" style="group" vertex="1" connectable="0" parent="1">
          <mxGeometry x="116" y="1359" width="48" height="47.41000000000008" as="geometry" />
        </mxCell>
        <mxCell id="0Mfy_nypwx77Hd2TMswc-229" value="" style="shape=image;html=1;verticalAlign=top;verticalLabelPosition=bottom;labelBackgroundColor=#ffffff;imageAspect=0;aspect=fixed;image=https://cdn0.iconfinder.com/data/icons/phosphor-fill-vol-4/256/sidebar-simple-fill-128.png" vertex="1" parent="0Mfy_nypwx77Hd2TMswc-231">
          <mxGeometry width="40.25" height="40.25" as="geometry" />
        </mxCell>
        <mxCell id="0Mfy_nypwx77Hd2TMswc-220" value="sidebar" style="text;strokeColor=none;align=left;fillColor=none;html=1;verticalAlign=middle;whiteSpace=wrap;rounded=0;fontStyle=1;fontColor=#CC0066;" vertex="1" parent="0Mfy_nypwx77Hd2TMswc-231">
          <mxGeometry y="40.25" width="48" height="7.16" as="geometry" />
        </mxCell>
        <mxCell id="0Mfy_nypwx77Hd2TMswc-125" value="&lt;span style=&quot;&quot;&gt;header&lt;/span&gt;" style="text;strokeColor=none;align=center;fillColor=none;html=1;verticalAlign=middle;whiteSpace=wrap;rounded=0;labelBackgroundColor=none;" vertex="1" parent="1">
          <mxGeometry x="691" y="1382" width="49" height="12" as="geometry" />
        </mxCell>
        <mxCell id="0Mfy_nypwx77Hd2TMswc-127" value="" style="sketch=0;outlineConnect=0;fontColor=#232F3E;gradientColor=none;fillColor=#232F3D;strokeColor=none;dashed=0;verticalLabelPosition=bottom;verticalAlign=top;align=center;html=1;fontSize=12;fontStyle=0;aspect=fixed;pointerEvents=1;shape=mxgraph.aws4.git_repository;" vertex="1" parent="1">
          <mxGeometry x="698.0799999999999" y="1351" width="23.85" height="31" as="geometry" />
        </mxCell>
        <mxCell id="0Mfy_nypwx77Hd2TMswc-129" style="edgeStyle=orthogonalEdgeStyle;rounded=0;orthogonalLoop=1;jettySize=auto;html=1;exitX=0.5;exitY=1;exitDx=0;exitDy=0;" edge="1" parent="1" source="0Mfy_nypwx77Hd2TMswc-125" target="0Mfy_nypwx77Hd2TMswc-125">
          <mxGeometry relative="1" as="geometry" />
        </mxCell>
        <mxCell id="0Mfy_nypwx77Hd2TMswc-234" value="" style="edgeStyle=orthogonalEdgeStyle;rounded=0;orthogonalLoop=1;jettySize=auto;html=1;" edge="1" parent="1" source="0Mfy_nypwx77Hd2TMswc-123">
          <mxGeometry relative="1" as="geometry">
            <mxPoint x="136" y="1359" as="targetPoint" />
          </mxGeometry>
        </mxCell>
        <mxCell id="0Mfy_nypwx77Hd2TMswc-236" value="" style="edgeStyle=orthogonalEdgeStyle;rounded=0;orthogonalLoop=1;jettySize=auto;html=1;" edge="1" parent="1" source="0Mfy_nypwx77Hd2TMswc-123" target="0Mfy_nypwx77Hd2TMswc-127">
          <mxGeometry relative="1" as="geometry">
            <mxPoint x="435.3499999999999" y="1183" as="targetPoint" />
          </mxGeometry>
        </mxCell>
        <mxCell id="0Mfy_nypwx77Hd2TMswc-237" value="&lt;ul&gt;&lt;li&gt;&lt;span style=&quot;background-color: initial;&quot;&gt;website&lt;/span&gt;&lt;/li&gt;&lt;ul&gt;&lt;li&gt;visit website&amp;nbsp;&lt;/li&gt;&lt;li&gt;chose theme&amp;nbsp;&lt;/li&gt;&lt;li&gt;website pages&lt;/li&gt;&lt;li&gt;create notices&amp;nbsp;&lt;/li&gt;&lt;li&gt;blogs&lt;/li&gt;&lt;li&gt;eCommerce&lt;/li&gt;&lt;/ul&gt;&lt;li&gt;guardians&amp;nbsp;&lt;/li&gt;&lt;ul&gt;&lt;li&gt;add guardians&lt;/li&gt;&lt;li&gt;all guardians&lt;/li&gt;&lt;/ul&gt;&lt;li&gt;player&lt;/li&gt;&lt;ul&gt;&lt;li&gt;add player&lt;/li&gt;&lt;li&gt;all player&lt;/li&gt;&lt;/ul&gt;&lt;li&gt;teams&lt;/li&gt;&lt;ul&gt;&lt;li&gt;add new team&lt;/li&gt;&lt;li&gt;team management&lt;/li&gt;&lt;li&gt;managers&lt;/li&gt;&lt;li&gt;trainers&lt;/li&gt;&lt;/ul&gt;&lt;li&gt;events&lt;/li&gt;&lt;ul&gt;&lt;li&gt;seasonal games&lt;/li&gt;&lt;li&gt;training schedule&lt;/li&gt;&lt;li&gt;game schedule&lt;/li&gt;&lt;li&gt;special event&lt;/li&gt;&lt;/ul&gt;&lt;li&gt;class / attendance&lt;/li&gt;&lt;li&gt;sponsors&lt;/li&gt;&lt;li&gt;chat&lt;/li&gt;&lt;li&gt;subscriptions&lt;/li&gt;&lt;ul&gt;&lt;li&gt;player subscriptions&lt;/li&gt;&lt;li&gt;seasonal&amp;nbsp; subscriptions&lt;/li&gt;&lt;li&gt;game subscriptions&lt;/li&gt;&lt;/ul&gt;&lt;li&gt;reports&lt;/li&gt;&lt;li&gt;charges&lt;/li&gt;&lt;li&gt;settings&lt;/li&gt;&lt;/ul&gt;" style="text;strokeColor=none;align=left;fillColor=none;html=1;verticalAlign=top;whiteSpace=wrap;rounded=0;" vertex="1" parent="1">
          <mxGeometry x="55.5" y="1424" width="228.5" height="538" as="geometry" />
        </mxCell>
        <mxCell id="0Mfy_nypwx77Hd2TMswc-238" value="&lt;ul&gt;&lt;li&gt;add items&lt;/li&gt;&lt;li&gt;charges&amp;nbsp;&lt;/li&gt;&lt;li&gt;upgrade&lt;/li&gt;&lt;li&gt;search&lt;/li&gt;&lt;li&gt;cart&amp;nbsp;&lt;/li&gt;&lt;li&gt;full screen&amp;nbsp;&lt;/li&gt;&lt;li&gt;dark mood&lt;/li&gt;&lt;li&gt;notification&amp;nbsp;&lt;/li&gt;&lt;li&gt;profile option&amp;nbsp;&lt;/li&gt;&lt;/ul&gt;" style="text;strokeColor=none;align=left;fillColor=none;html=1;verticalAlign=top;whiteSpace=wrap;rounded=0;" vertex="1" parent="1">
          <mxGeometry x="614" y="1398" width="222.09" height="278" as="geometry" />
        </mxCell>
      </root>
    </mxGraphModel>
  </diagram>
</mxfile>
